HIERARCHY
ROOT SpineBase
{
  OFFSET 0.000000 0.000000 0.000000
  CHANNELS 6 Xposition Yposition Zposition Zrotation Xrotation Yrotation
  JOINT SpineMid
  {
    OFFSET 0.000000 29.679456 -0.000000
    CHANNELS 3 Zrotation Xrotation Yrotation
    JOINT SpineShoulder
    {
      OFFSET -0.034233 22.027441 -0.779101
      CHANNELS 3 Zrotation Xrotation Yrotation
      JOINT Neck
      {
        OFFSET -0.032818 7.286982 -0.575134
        CHANNELS 3 Zrotation Xrotation Yrotation
        JOINT Head
        {
          OFFSET -1.774776 12.248085 -0.262875
          CHANNELS 3 Zrotation Xrotation Yrotation
          End Site
          {
            OFFSET 0 0 0
          }
        }
      }
      JOINT ShoulderLeft
      {
        OFFSET -16.117052 -1.483882 2.772808
        CHANNELS 3 Zrotation Xrotation Yrotation
        JOINT ElbowLeft
        {
          OFFSET -3.250611 -25.947185 1.074449
          CHANNELS 3 Zrotation Xrotation Yrotation
          JOINT WristLeft
          {
            OFFSET -0.820542 -24.718697 -4.632572
            CHANNELS 3 Zrotation Xrotation Yrotation
            JOINT HandLeft
            {
              OFFSET 0.289279 -5.193825 -2.567751
              CHANNELS 3 Zrotation Xrotation Yrotation
              JOINT HandTipLeft
              {
                OFFSET -1.499077 -8.076401 -2.966182
                CHANNELS 3 Zrotation Xrotation Yrotation
                End Site
                {
                  OFFSET 0 0 0
                }
              }
              JOINT ThumbLeft
              {
                OFFSET 3.756350 -0.041410 -2.860343
                CHANNELS 3 Zrotation Xrotation Yrotation
                End Site
                {
                  OFFSET 0 0 0
                }
              }
            }
          }
        }
      }
      JOINT ShoulderRight
      {
        OFFSET 15.927434 -1.696033 -4.128859
        CHANNELS 3 Zrotation Xrotation Yrotation
        JOINT ElbowRight
        {
          OFFSET 6.925289 -25.062786 -1.625459
          CHANNELS 3 Zrotation Xrotation Yrotation
          JOINT WristRight
          {
            OFFSET 0.086580 -22.629228 -5.301507
            CHANNELS 3 Zrotation Xrotation Yrotation
            JOINT HandRight
            {
              OFFSET -2.284931 -6.828991 -1.587027
              CHANNELS 3 Zrotation Xrotation Yrotation
              JOINT HandTipRight
              {
                OFFSET -0.008310 -7.053440 -1.472880
                CHANNELS 3 Zrotation Xrotation Yrotation
                End Site
                {
                  OFFSET 0 0 0
                }
              }
              JOINT ThumbRight
              {
                OFFSET 1.221656 -2.548196 -3.685697
                CHANNELS 3 Zrotation Xrotation Yrotation
                End Site
                {
                  OFFSET 0 0 0
                }
              }
            }
          }
        }
      }
    }
  }
  JOINT HipLeft
  {
    OFFSET -7.451715 0.521914 -2.199907
    CHANNELS 3 Zrotation Xrotation Yrotation
    JOINT KneeLeft
    {
      OFFSET -8.249815 -32.432393 -7.840257
      CHANNELS 3 Zrotation Xrotation Yrotation
      JOINT AnkleLeft
      {
        OFFSET -1.687073 -35.172679 6.755498
        CHANNELS 3 Zrotation Xrotation Yrotation
        JOINT FootLeft
        {
          OFFSET -1.592902 -3.357079 -12.483552
          CHANNELS 3 Zrotation Xrotation Yrotation
          End Site
          {
            OFFSET 0 0 0
          }
        }
      }
    }
  }
  JOINT HipRight
  {
    OFFSET 6.876936 0.851231 -4.671950
    CHANNELS 3 Zrotation Xrotation Yrotation
    JOINT KneeRight
    {
      OFFSET 5.901678 -29.771414 2.752594
      CHANNELS 3 Zrotation Xrotation Yrotation
      JOINT AnkleRight
      {
        OFFSET 0.709174 -35.550791 7.045164
        CHANNELS 3 Zrotation Xrotation Yrotation
        JOINT FootRight
        {
          OFFSET -1.918278 -4.239691 -13.761487
          CHANNELS 3 Zrotation Xrotation Yrotation
          End Site
          {
            OFFSET 0 0 0
          }
        }
      }
    }
  }
}
MOTION
Frames: 16
Frame Time: 0.033333
31.248189 72.337447 372.293243 -0.000000 -0.000000 9.788565 0.000000 0.000000 -9.788565 -0.000000 0.000000 0.000000 -0.000000 0.000000 0.000000 0.000000 0.000000 0.000000 -0.000000 0.000000 0.000000 -0.000000 0.000000 0.000000 -0.000000 0.000000 0.000000 -0.000000 0.000000 0.000000 0.000000 0.000000 0.000000 0.000000 0.000000 0.000000 -0.000000 0.000000 0.000000 -0.000000 0.000000 0.000000 -0.000000 0.000000 0.000000 -0.000000 0.000000 0.000000 0.000000 0.000000 0.000000 0.000000 0.000000 0.000000 0.000000 0.000000 -9.788565 -0.000000 0.000000 0.000000 -0.000000 0.000000 0.000000 0.000000 0.000000 0.000000 0.000000 0.000000 -9.788565 -0.000000 0.000000 0.000000 -0.000000 0.000000 0.000000 0.000000 0.000000 0.000000
31.265269 72.335821 372.269081 -0.002058 -0.004407 9.773514 0.002776 0.003994 -9.773514 -0.000000 0.000000 0.000000 -0.000000 0.000000 0.000000 0.000000 0.000000 0.000000 -0.000000 0.000000 0.000000 -0.000000 0.000000 0.000000 -0.482068 -1.489721 0.150084 -0.572603 -0.703689 0.642974 0.000000 0.000000 0.000000 0.000000 0.000000 0.000000 -0.000000 0.000000 0.000000 -0.000000 0.000000 0.000000 0.986326 -0.853122 0.063868 -0.985483 0.854094 -0.049179 0.000000 0.000000 0.000000 0.000000 0.000000 0.000000 0.002776 0.003994 -9.773514 -0.000000 0.000000 0.000000 -0.000000 0.000000 0.000000 0.000000 0.000000 0.000000 0.002776 0.003994 -9.773514 -0.000000 0.000000 0.000000 0.063528 -1.293748 0.394458 0.000000 0.000000 0.000000
31.277344 72.332938 372.248235 -0.007622 -0.009827 9.765748 0.009179 0.008391 -9.765749 -0.000000 0.000000 0.000000 -0.000000 0.000000 0.000000 0.000000 0.000000 0.000000 -0.000000 0.000000 0.000000 -0.000000 0.000000 0.000000 -0.793051 -2.579525 0.233214 -0.918640 -1.048806 1.067003 0.000000 0.000000 0.000000 0.000000 0.000000 0.000000 -0.000000 0.000000 0.000000 -0.000000 0.000000 0.000000 1.664400 -1.421922 0.110474 -1.918233 0.101113 -0.010908 0.000000 0.000000 0.000000 0.000000 0.000000 0.000000 0.009179 0.008391 -9.765749 -0.000000 0.000000 0.000000 -0.000000 0.000000 0.000000 0.000000 0.000000 0.000000 0.009179 0.008391 -9.765749 -0.000000 0.000000 0.000000 0.144391 -2.339678 0.635504 0.000000 0.000000 0.000000
31.284414 72.328798 372.230704 -0.016691 -0.016259 9.765255 0.019207 0.013192 -9.765259 -0.000000 0.000000 0.000000 -0.000000 0.000000 0.000000 0.000000 0.000000 0.000000 -0.000000 0.000000 0.000000 -0.343908 -0.834743 0.089771 -0.604902 -2.461623 0.179235 -1.130562 -1.186085 1.335249 0.000000 0.000000 0.000000 0.000000 0.000000 0.000000 -0.000000 0.000000 0.000000 -0.000000 0.000000 0.000000 2.057364 -1.728454 0.132497 -2.690166 0.201264 0.074917 0.000000 0.000000 0.000000 0.000000 0.000000 0.000000 0.019207 0.013192 -9.765259 0.777776 -0.249529 0.163034 -0.777070 0.251718 -0.159634 0.000000 0.000000 0.000000 0.019207 0.013192 -9.765259 -0.000000 0.000000 0.000000 0.236815 -3.135576 0.721653 0.000000 0.000000 0.000000
31.286480 72.323400 372.216489 -0.029265 -0.023706 9.772027 0.032864 0.018395 -9.772038 -0.000000 0.000000 0.000000 -0.000000 0.000000 0.000000 0.000000 0.000000 0.000000 -0.000000 0.000000 0.000000 -0.392593 -0.940996 0.101735 -0.557266 -2.718599 0.144405 -1.254005 -1.191237 1.478701 0.000000 0.000000 0.000000 0.000000 0.000000 0.000000 -0.000000 0.000000 0.000000 -0.000000 0.000000 0.000000 2.180724 -1.787154 0.126446 -3.359982 0.374722 0.212850 0.000000 0.000000 0.000000 0.000000 0.000000 0.000000 0.032864 0.018395 -9.772038 0.736605 -0.383724 0.162297 -0.735532 0.385777 -0.157354 0.000000 0.000000 0.000000 0.032864 0.018395 -9.772038 -0.000000 0.000000 0.000000 0.337010 -3.680159 0.651408 0.000000 0.000000 0.000000
31.283539 72.316745 372.205588 -0.045346 -0.032168 9.786059 0.050154 0.023993 -9.786082 -0.000000 0.000000 0.000000 -0.000000 0.000000 0.000000 0.000000 0.000000 0.000000 0.153756 0.866738 -0.103431 -0.558676 -1.827922 0.200052 -0.391088 -2.715869 0.066406 -1.304828 -1.089968 1.507267 0.000000 0.000000 0.000000 0.000000 0.000000 0.000000 -0.000000 0.000000 0.000000 -0.000000 0.000000 0.000000 2.043150 -1.605406 0.091799 -3.928293 0.627886 0.398079 0.000000 0.000000 0.000000 0.000000 0.000000 0.000000 0.050154 0.023993 -9.786082 -0.000000 0.000000 0.000000 -0.000000 0.000000 0.000000 0.000000 0.000000 0.000000 0.050154 0.023993 -9.786082 -0.000000 0.000000 0.000000 0.443214 -3.972518 0.423246 0.000000 0.000000 0.000000
31.277369 72.311766 372.202288 -0.055002 -0.031586 9.809912 0.059579 0.021753 -9.809938 -0.000000 0.000000 0.000000 -0.000000 0.000000 0.000000 0.000000 0.000000 0.000000 0.205610 1.030938 -0.122566 -0.585004 -2.282755 0.221536 -0.165367 -2.674140 -0.073756 -0.506188 -0.984074 1.273170 0.000000 0.000000 0.000000 0.000000 0.000000 0.000000 -0.000000 0.000000 0.000000 -0.000000 0.000000 0.000000 2.249355 -1.113264 -0.129593 -5.114738 1.042747 0.824825 0.000000 0.000000 0.000000 0.000000 0.000000 0.000000 0.059579 0.021753 -9.809938 -0.000000 0.000000 0.000000 -0.692992 2.033242 1.519680 0.000000 0.000000 0.000000 0.059579 0.021753 -9.809938 -0.000000 0.000000 0.000000 0.545016 -3.676701 -0.097857 0.000000 0.000000 0.000000
31.291959 72.316074 372.206249 -0.037922 -0.043240 9.867609 0.044771 0.036101 -9.867637 -0.000000 0.000000 0.000000 -0.000000 0.000000 0.000000 0.000000 0.000000 0.000000 0.256786 1.106630 -0.130576 -0.572121 -2.576606 0.224547 1.220406 -1.687643 -0.742161 -1.846130 -0.947664 1.795237 0.000000 0.000000 0.000000 0.000000 0.000000 0.000000 -0.000000 0.000000 0.000000 -0.000000 0.000000 0.000000 1.808176 0.441219 -0.577366 -5.945663 -0.783785 1.384806 0.000000 0.000000 0.000000 0.000000 0.000000 0.000000 0.044771 0.036101 -9.867637 -0.712741 -0.821448 -0.102431 0.711344 0.822657 0.092215 0.000000 0.000000 0.000000 0.044771 0.036101 -9.867637 0.762960 0.320740 0.155527 -0.169567 -3.318349 -0.795412 0.000000 0.000000 0.000000
31.274687 72.303277 372.205795 -0.066402 -0.065606 9.922708 0.076714 0.053182 -9.922781 -0.000000 0.000000 0.000000 -0.000000 0.000000 0.000000 0.000000 0.000000 0.000000 0.399560 1.149167 -0.131544 -0.557886 -2.239393 0.185632 1.782743 -0.621425 -0.977345 -3.849800 -0.908975 2.246027 0.000000 0.000000 0.000000 0.000000 0.000000 0.000000 -0.000000 0.000000 0.000000 -0.943147 0.205756 0.223356 0.009416 1.062808 -0.418472 -3.446057 2.728575 1.174358 0.000000 0.000000 0.000000 0.000000 0.000000 0.000000 0.076714 0.053182 -9.922781 -1.736782 -1.606013 -0.279952 2.621191 1.985709 -3.261058 0.000000 0.000000 0.000000 -0.996054 -0.612807 -10.182055 1.553342 1.564726 0.371110 0.148481 -4.214973 -1.147971 0.000000 0.000000 0.000000
31.239069 72.263577 372.189681 -0.121683 -0.076015 9.938895 0.132977 0.053872 -9.939038 -0.000000 0.000000 0.000000 -0.000000 0.000000 0.000000 0.000000 0.000000 0.000000 0.477825 1.149232 -0.129105 -0.475331 -1.150266 0.119541 1.269861 1.052693 -0.577874 -2.846490 0.183142 0.884025 0.000000 0.000000 0.000000 0.000000 0.000000 0.000000 -0.000000 0.000000 0.000000 -0.341307 0.793527 0.085223 -1.902759 1.006215 -0.154966 -3.881825 1.426647 1.363408 0.000000 0.000000 0.000000 0.000000 0.000000 0.000000 0.132977 0.053872 -9.939038 -0.850383 -0.710040 -0.134337 2.101433 -4.889990 -2.223811 0.000000 0.000000 0.000000 -1.402067 -1.177573 -10.367680 1.675393 2.549720 0.482557 0.189014 -2.297509 -1.481037 0.000000 0.000000 0.000000
31.152290 72.213841 372.169257 -0.239969 -0.101069 9.854927 0.253727 0.058505 -9.855268 -0.000000 0.000000 0.000000 0.793714 0.702976 0.113931 0.000000 0.000000 0.000000 0.270235 1.146890 -0.135295 -0.801298 0.623002 0.167819 0.084520 0.404717 0.300920 0.272219 2.969090 -1.200473 0.000000 0.000000 0.000000 0.000000 0.000000 0.000000 -0.000000 0.000000 0.000000 -0.567757 1.926525 0.149346 -4.788408 -0.145947 0.415488 -1.688249 2.963555 0.973343 0.000000 0.000000 0.000000 0.000000 0.000000 0.000000 0.253727 0.058505 -9.855268 -0.000000 0.000000 0.000000 1.642703 -11.320968 -0.891506 0.000000 0.000000 0.000000 -0.828495 -1.310319 -10.248169 0.798337 2.704623 0.391050 0.749984 -3.018396 -1.628863 0.000000 0.000000 0.000000
31.003377 72.166714 372.145872 -0.402721 -0.123262 9.677642 0.417711 0.053806 -9.678272 -0.000000 0.000000 0.000000 0.843855 0.718714 0.116855 0.000000 0.000000 0.000000 -0.075353 1.394769 -0.177020 -0.616049 3.953302 0.144412 0.677613 -1.075369 0.316113 2.368285 1.723450 -2.136202 0.000000 0.000000 0.000000 0.000000 0.000000 0.000000 -0.000000 0.000000 0.000000 -0.865681 3.184241 0.237521 -10.583759 -2.129777 1.540089 3.870794 4.640299 -0.315861 0.000000 0.000000 0.000000 0.000000 0.000000 0.000000 0.417711 0.053806 -9.678272 1.444097 -1.264652 0.353442 0.440032 -14.408491 0.451618 0.000000 0.000000 0.000000 -0.791443 -1.247746 -10.075687 1.092025 2.508010 0.414910 0.995190 -3.764851 -2.648454 0.000000 0.000000 0.000000
30.862812 72.112824 372.131999 -0.555991 -0.181196 9.469129 0.578225 0.087251 -9.470448 -0.000000 0.000000 0.000000 0.798602 0.626298 0.103436 0.000000 0.000000 0.000000 -0.780169 2.166730 -0.289008 -0.336283 6.737735 0.270894 1.680944 -0.396168 0.391642 5.562867 -0.225929 -3.495948 0.000000 0.000000 0.000000 0.000000 0.000000 0.000000 0.678647 -0.590913 -0.203531 -4.883354 5.656733 1.426852 -13.017438 -4.766821 1.530280 4.909356 9.314382 -0.185914 0.000000 0.000000 0.000000 0.000000 0.000000 0.000000 1.518036 0.920893 -9.918016 2.804839 -3.036585 1.342313 -1.719556 -15.510731 1.709534 0.000000 0.000000 0.000000 0.189962 -0.723823 -9.666880 0.092998 1.797601 0.184780 1.834337 -5.618036 -3.751943 0.000000 0.000000 0.000000
30.753205 72.053706 372.127750 -0.690835 -0.262956 9.234936 0.724083 0.148663 -9.237461 -0.000000 0.000000 0.000000 -0.000000 0.000000 0.000000 0.000000 0.000000 0.000000 -1.740518 3.246692 -0.429281 0.575027 11.148859 0.335587 3.104098 -4.092839 0.316745 7.653604 -1.989326 -3.764351 0.000000 0.000000 0.000000 0.000000 0.000000 0.000000 1.280119 -0.799306 -0.294187 -8.408217 8.480705 2.544000 -17.920346 -13.169099 1.686502 9.633412 13.857485 -2.614544 0.000000 0.000000 0.000000 0.000000 0.000000 0.000000 1.985721 1.919436 -9.987190 4.393153 -5.755908 2.261942 -3.770502 -12.735582 2.731994 0.000000 0.000000 0.000000 0.776333 -0.738132 -9.390956 -0.148385 -0.352109 0.139590 2.135068 -4.044446 -5.489638 0.000000 0.000000 0.000000
30.676027 72.006263 372.136201 -0.809734 -0.350916 9.064969 0.854915 0.218924 -9.069082 -0.686360 -0.472535 -0.059113 0.685896 0.473209 0.053450 0.000000 0.000000 0.000000 -2.343524 5.005353 -0.494387 2.043471 15.558435 0.397662 3.810386 -7.926203 0.610485 11.743816 -1.809138 -5.000716 0.000000 0.000000 0.000000 0.000000 0.000000 0.000000 2.490792 -0.361975 -0.295214 -14.604194 11.308820 4.661062 -17.570441 -23.180279 0.124614 9.330194 25.185774 -2.682458 0.000000 0.000000 0.000000 0.000000 0.000000 0.000000 2.469050 4.787641 -10.551564 5.799722 -11.066441 3.795942 -5.422390 -6.517485 3.359926 0.000000 0.000000 0.000000 1.887910 -0.305647 -9.036817 -1.102585 0.355765 -0.028059 2.379652 -6.101194 -5.908481 0.000000 0.000000 0.000000
30.590166 71.944086 372.224725 -1.019277 -0.574305 8.765715 0.233460 0.032934 -8.800266 -0.004292 -0.103693 -0.037549 0.797205 0.610779 0.061447 0.000000 0.000000 0.000000 -3.776719 6.629251 -0.591770 4.129914 19.388605 0.426616 4.444939 -9.642074 0.955791 15.347643 -4.799974 -5.005144 0.000000 0.000000 0.000000 0.000000 0.000000 0.000000 3.119529 0.098371 -0.244179 -20.313786 13.417896 6.620966 -19.992054 -32.270639 -2.631914 10.400993 35.696518 -2.147097 0.000000 0.000000 0.000000 0.000000 0.000000 0.000000 1.947918 8.266009 -10.729295 8.456534 -16.679330 5.416073 -7.137079 1.508785 3.639148 0.000000 0.000000 0.000000 2.978338 0.252158 -8.586299 -0.779149 1.716567 0.038802 0.397945 -4.774897 -4.132893 0.000000 0.000000 0.000000
